<svg width="542" height="609" viewBox="0 0 542 609" fill="none" xmlns="http://www.w3.org/2000/svg">
<path d="M538.65 395.3C531.432 435.945 510.673 472.952 479.75 500.3C469.073 509.714 457.521 518.086 445.25 525.3C402 551.45 348.4 567.3 292.6 580.3L283.05 582.45C274.756 584.334 266.248 585.107 257.75 584.75C169 581.05 108.55 449.5 89.75 311.05C73.35 187.8 100.8 48.2 223.7 41.9C269.85 39.6 323.7 62.6 373.7 99.6C377.3 102.25 380.9 105 384.45 107.8L386.65 109.55C480 183.95 556.25 304.6 538.65 395.3Z" fill="#FDE6D6"/>
<path d="M103.05 511.35C110 525.4 112.55 543.2 98.6001 548.9C83.0001 555.3 58.1001 545 50.9001 521.55C46.2501 506.55 47.8501 485.65 60.9001 477.6C71.5501 470.7 94.7501 494.15 103.05 511.35Z" fill="#F5F9FD"/>
<path d="M484.75 196.25C478.5 190.8 473.5 182.7 478.8 177.25C484.1 171.8 498.4 171.35 506.8 181.3C512.15 187.65 515.85 198.05 511.8 204.4C508.2 209.8 492.55 202.9 484.75 196.25Z" fill="#FFAD69"/>
<path d="M469.75 395.75C469.75 396.35 469.75 396.85 469.75 397.4C468.5 411.35 456.5 441.1 444.75 467.4C445.15 476.9 445.45 485.4 445.5 492.4C445.5 493.7 445.5 494.9 445.5 496.1H444.05C444.4 502.3 444.85 513.05 445.2 525.4C401.95 551.55 348.35 567.4 292.55 580.4L283 582.55C274.706 584.434 266.198 585.207 257.7 584.85C257.189 582.758 257.003 580.599 257.15 578.45C258.332 550.261 261.271 522.173 265.95 494.35L262.85 493.9C274.2 455.6 279.9 400.35 282.85 352.4C283.2 346.75 283.5 341.25 283.75 335.8C276.5 343.2 271.5 347.8 271.5 347.8L256.15 322.55C237.2 336.25 219.3 348.35 210.55 353.95C203.3 360.75 190.95 361.75 181.25 348.95C165.55 328.4 143.4 242.15 140.8 227.5C140.421 227.357 140.066 227.154 139.75 226.9C136.15 221.9 123.55 194.65 124.75 189.35C125.95 184.05 131.85 172.6 138.7 171.05C137.9 168.6 137 166.05 135.7 162.5C132.8 154.6 129.35 146.6 134.55 147.5C139.75 148.4 151.65 177.5 153.7 182.5C154 180.15 154.3 178.25 154.3 178.25C155.9 173.55 164.3 171.05 163.05 178.25C161.6 188.25 165.1 193.25 164.95 201.5C164.95 201.95 164.95 202.45 164.95 203.15C164.97 203.45 164.97 203.75 164.95 204.05C164.977 204.266 164.977 204.484 164.95 204.7C164.95 204.7 164.95 204.95 164.95 205.05C163.733 211.195 161.574 217.114 158.55 222.6C164 240.4 189 286.95 203.55 312.6C212.45 305.2 223.55 296.4 235.05 287.6L234.05 285.95C234.05 285.95 293.35 230.5 324.05 226.3C324.5 224.15 324.8 221.8 325.1 219.35C325.4 216.9 325.6 212.75 325.7 209.35C303.15 209.1 301.05 192.5 303.3 171.4L299.75 170.5L305 156.9V155.9C304.424 155.229 304.089 154.384 304.05 153.5C304.05 151.85 304.5 150.45 305.4 150.4C305.529 150.35 305.671 150.35 305.8 150.4C305.8 149.2 306.2 148 306.35 146.8C306.75 144.15 307.25 141.8 307.75 139.35C306.413 139.087 305.037 139.087 303.7 139.35L303.3 136.9C304.954 136.605 306.646 136.605 308.3 136.9C309.96 130.196 312.641 123.788 316.25 117.9C309.05 117.4 305.65 115.05 310.65 109.25C318.4 100.25 355.1 95.75 373.6 99.55C380.1 100.9 384.35 103.25 384.4 106.75C384.4 107.15 384.4 107.4 384.4 107.75C386.292 106.949 387.921 105.632 389.1 103.95L391.2 105.35C389.993 107.057 388.422 108.475 386.6 109.5L385.85 109.9C405.65 122.8 377.65 191.9 377.55 191.9C377 203.75 376.65 215.45 376.7 223.7C394.5 225.75 405.75 230.95 413.2 239.1C433.2 255.15 463.9 321 463.9 321L451.35 324.3C460.3 353 467.9 381.8 470.1 391.45C470.166 392.892 470.048 394.337 469.75 395.75Z" fill="#D1CDD3"/>
<rect opacity="0.3" x="377.05" y="284.9" width="334.65" height="261.25" rx="33.6" transform="rotate(180 377.05 284.9)" fill="#4D8DFF"/>
<path opacity="0.3" fill-rule="evenodd" clip-rule="evenodd" d="M40.15 308.55H354.75C365.385 308.55 375.582 304.315 383.087 296.781C390.593 289.247 394.79 279.035 394.75 268.4V40.15C394.75 18.0586 376.841 0.150024 354.75 0.150024H40.15C18.0586 0.150024 0.150024 18.0586 0.150024 40.15V268.55C0.150024 290.641 18.0586 308.55 40.15 308.55ZM1.25002 40.15C1.27757 18.6776 18.6776 1.27757 40.15 1.25002H354.75C376.222 1.27757 393.622 18.6776 393.65 40.15V268.4C393.622 289.872 376.222 307.272 354.75 307.3H40.15C18.6776 307.272 1.27757 289.872 1.25002 268.4V40.15Z" fill="#4D8DFF"/>
<g opacity="0.3">
<rect x="126.05" y="101.05" width="55.9" height="43.65" rx="5.6" transform="rotate(180 126.05 101.05)" fill="#4D8DFF"/>
<rect x="200.45" y="101.05" width="55.9" height="43.65" rx="5.6" transform="rotate(180 200.45 101.05)" fill="#4D8DFF"/>
<rect x="274.9" y="101.05" width="55.9" height="43.65" rx="5.6" transform="rotate(180 274.9 101.05)" fill="#4D8DFF"/>
<rect x="349.35" y="101.05" width="55.9" height="43.65" rx="5.6" transform="rotate(180 349.35 101.05)" fill="#4D8DFF"/>
</g>
<g opacity="0.3">
<rect x="126.05" y="176.1" width="55.9" height="43.65" rx="5.6" transform="rotate(180 126.05 176.1)" fill="#4D8DFF"/>
<rect x="200.45" y="176.1" width="55.9" height="43.65" rx="5.6" transform="rotate(180 200.45 176.1)" fill="#4D8DFF"/>
<rect x="274.9" y="176.1" width="55.9" height="43.65" rx="5.6" transform="rotate(180 274.9 176.1)" fill="#4D8DFF"/>
<rect x="349.35" y="176.1" width="55.9" height="43.65" rx="5.6" transform="rotate(180 349.35 176.1)" fill="#4D8DFF"/>
</g>
<g opacity="0.3">
<rect x="126.05" y="251.1" width="55.9" height="43.65" rx="5.6" transform="rotate(180 126.05 251.1)" fill="#4D8DFF"/>
<rect x="200.45" y="251.1" width="55.9" height="43.65" rx="5.6" transform="rotate(180 200.45 251.1)" fill="#4D8DFF"/>
<rect x="274.9" y="251.1" width="55.9" height="43.65" rx="5.6" transform="rotate(180 274.9 251.1)" fill="#4D8DFF"/>
<rect x="349.35" y="251.1" width="55.9" height="43.65" rx="5.6" transform="rotate(180 349.35 251.1)" fill="#4D8DFF"/>
</g>
<rect x="282" y="93.95" width="55.9" height="43.65" rx="5.6" transform="rotate(180 282 93.95)" fill="#4D8DFF"/>
<rect x="282" y="244" width="55.9" height="43.65" rx="5.6" transform="rotate(180 282 244)" fill="#FF4E4A"/>
<rect x="133.1" y="169" width="55.9" height="43.65" rx="5.6" transform="rotate(180 133.1 169)" fill="#FFC84D"/>
<path d="M416.1 148.75C414.4 159.65 411.1 218.75 412.45 232.25C413.8 245.75 347.45 249.85 356.3 234.8C365.15 219.75 358.85 169.8 358.85 169.8L416.1 148.75Z" fill="#FFAD69"/>
<path d="M411.5 150.45L358.85 169.7C360.822 186.173 361.29 202.792 360.25 219.35C381.95 210.4 377.15 192.2 377.15 182.4C377.15 173.5 411.55 152.15 411.5 150.45Z" fill="#D88344"/>
<path d="M342.1 152.7L333.9 170.2L343.9 174.25L342.1 152.7Z" fill="#D88344"/>
<path d="M341.95 146.9C336.95 180.55 328.75 214.1 369.55 208.55C410.35 203 416.65 150.8 416.55 140.9C415.9 88.3 351.55 80.8 341.95 146.9Z" fill="#FFAD69"/>
<path d="M421.5 110.1C423.607 109.011 425.437 107.455 426.85 105.55L424.75 104.15C423.474 105.862 421.741 107.179 419.75 107.95C419.777 107.601 419.777 107.249 419.75 106.9C419.75 93.3 356.45 97.2 346 109.35C339.8 116.55 346.4 118.45 357.1 118.1C356.306 118.711 355.713 119.548 355.4 120.5C348.35 155.05 381.65 189.05 385.4 191.95H412.6C412.6 191.95 441.1 122.8 421.5 110.1Z" fill="#232323"/>
<path d="M505.5 391.5C501.9 375.45 483.15 306 468.25 272.7L430.2 280.8C430.2 280.8 454.75 362.9 467.8 393.55C464.75 410.05 449.35 486.8 439.85 508.25C435.65 518.25 451.55 522.1 455.4 517.3C459.25 512.5 502.95 424.7 505.4 397.3C505.4 396.7 505.4 396.2 505.4 395.65C505.649 394.28 505.683 392.88 505.5 391.5Z" fill="#FFAD69"/>
<path d="M448.35 238.85C468.35 254.5 499.3 321.05 499.3 321.05L433.8 338.05C433.8 338.05 395.7 197.65 448.35 238.85Z" fill="#E5AA33"/>
<path d="M479.75 500.35C469.073 509.764 457.521 518.136 445.25 525.35C402 551.5 348.4 567.35 292.6 580.35C292.55 579.701 292.55 579.049 292.6 578.4C294.4 547.45 297.6 512.1 302.6 489.65L445.65 492.5L479.45 493.2C479.45 494.9 479.75 497.3 479.75 500.35Z" fill="#232323"/>
<path d="M400.45 222.9C439.7 224.2 453 237.45 459.75 260.4C467.45 286.4 481 443.65 481 496.15C481 496.15 363.45 504.5 298.35 493.8C318.75 424.85 320.95 300.9 321.4 263.8C321.7 236.25 350.65 221.25 400.45 222.9Z" fill="#FFC84D"/>
<path fill-rule="evenodd" clip-rule="evenodd" d="M405.3 249.9C406.003 250.851 407.118 251.408 408.3 251.4L408.9 251.2C410.242 251.03 411.388 250.151 411.9 248.9L417.6 234.7C417.98 233.559 417.798 232.305 417.108 231.319C416.418 230.334 415.302 229.733 414.1 229.7H397.75C396.33 229.7 395.031 230.503 394.396 231.773C393.761 233.043 393.898 234.564 394.75 235.7L405.3 249.9ZM396.5 232.9C396.714 232.463 397.163 232.189 397.65 232.2H413.95C414.37 232.195 414.765 232.402 415 232.75C415.225 233.118 415.225 233.582 415 233.95L409.3 248.1C409.149 248.537 408.76 248.848 408.3 248.9C407.855 248.952 407.416 248.761 407.15 248.4L396.5 234.2C396.245 233.804 396.245 233.296 396.5 232.9Z" fill="white"/>
<path d="M321.25 272.95C320.95 291.1 320.25 320.05 318.3 352.4C334.95 332.4 351.3 308.75 352.25 291C353.6 266.6 339.75 265.1 321.25 272.95Z" fill="#E5AA33"/>
<path d="M343.4 281.4L323.4 248.15C323.4 248.15 268.4 287.8 238.85 312.35C224.25 286.65 199.3 240.1 193.85 222.35C196.864 216.883 199.007 210.978 200.2 204.85C200.23 204.735 200.23 204.615 200.2 204.5C200.2 204.5 200.2 204.05 200.2 203.85C200.222 203.55 200.222 203.25 200.2 202.95C200.2 202.25 200.2 201.7 200.2 201.25C200.2 193.2 196.85 188.25 198.3 178.05C199.3 170.9 191.15 173.35 189.55 178.05L188.9 182.25C186.85 177.25 174.5 147.9 169.8 147.25C165.1 146.6 168.05 154.5 170.95 162.25C172.2 165.7 173.15 168.4 173.95 170.8C167.05 172.4 160.95 184.2 160 189.15C159.05 194.1 171.55 221.7 175 226.7C175.267 227.034 175.588 227.321 175.95 227.55C178.5 242.25 200.95 328.45 216.35 349.05C226.05 361.8 238.45 360.8 245.7 354.05C263.5 342.7 318.2 305.1 343.4 281.4Z" fill="#FFAD69"/>
<path d="M377.15 248.15C375.15 284.85 307.15 347.8 307.15 347.8L269.25 285.8C269.25 285.8 380.85 181.4 377.15 248.15Z" fill="#FFC84D"/>
<path d="M356.15 157.3C354.65 166.1 352.45 174.85 360.7 174.2C368.95 173.55 371.05 159.85 371.2 157.25C371.9 143.25 359.1 139.9 356.15 157.3Z" fill="#FFAD69"/>
</svg>
